<svg width="167" height="23" viewBox="0 0 167 23" fill="none" xmlns="http://www.w3.org/2000/svg">
<path d="M0.695879 5.69C0.532546 5.43333 0.380879 5.08333 0.240879 4.64C0.100879 4.19667 0.0308789 3.73 0.0308789 3.24C0.0308789 2.33 0.229212 1.67667 0.625879 1.28C1.04588 0.883333 1.58255 0.684999 2.23588 0.684999H17.4959C17.6592 0.941665 17.8109 1.29166 17.9509 1.735C18.0909 2.17833 18.1609 2.645 18.1609 3.135C18.1609 4.045 17.9509 4.69833 17.5309 5.095C17.1342 5.49167 16.6092 5.69 15.9559 5.69H12.0709V21.86C11.8142 21.93 11.4059 22 10.8459 22.07C10.3092 22.14 9.77255 22.175 9.23588 22.175C8.69921 22.175 8.22088 22.1283 7.80088 22.035C7.40421 21.965 7.06588 21.825 6.78588 21.615C6.50588 21.405 6.29588 21.1133 6.15588 20.74C6.01588 20.3667 5.94588 19.8767 5.94588 19.27V5.69H0.695879ZM24.2378 1.42C24.6344 1.18667 25.2294 0.964998 26.0228 0.754998C26.8394 0.544998 27.6561 0.439998 28.4728 0.439998C29.6394 0.439998 30.6661 0.614999 31.5528 0.965C32.4628 1.29167 33.0461 1.81667 33.3028 2.54C33.7228 3.75333 34.1778 5.165 34.6678 6.775C35.1578 8.385 35.6478 10.0533 36.1378 11.78C36.6278 13.4833 37.1061 15.175 37.5728 16.855C38.0394 18.5117 38.4478 19.9817 38.7978 21.265C38.5178 21.5917 38.0978 21.8483 37.5378 22.035C36.9778 22.245 36.3128 22.35 35.5428 22.35C34.9828 22.35 34.5044 22.3033 34.1078 22.21C33.7344 22.1167 33.4194 21.9767 33.1628 21.79C32.9294 21.6033 32.7311 21.3583 32.5678 21.055C32.4278 20.7517 32.2994 20.4017 32.1828 20.005L31.5528 17.59H25.2178C25.0311 18.29 24.8444 19.0133 24.6578 19.76C24.4711 20.5067 24.2844 21.23 24.0978 21.93C23.7711 22.0467 23.4211 22.14 23.0478 22.21C22.6978 22.3033 22.2661 22.35 21.7528 22.35C20.5628 22.35 19.6761 22.1517 19.0928 21.755C18.5328 21.335 18.2528 20.7633 18.2528 20.04C18.2528 19.7133 18.2994 19.3867 18.3928 19.06C18.4861 18.7333 18.5911 18.3483 18.7078 17.905C18.8711 17.275 19.0928 16.4933 19.3728 15.56C19.6761 14.6267 20.0028 13.6233 20.3528 12.55C20.7028 11.4533 21.0761 10.3333 21.4728 9.19C21.8694 8.04667 22.2428 6.97333 22.5928 5.97C22.9428 4.94333 23.2578 4.03333 23.5378 3.24C23.8411 2.44667 24.0744 1.84 24.2378 1.42ZM28.4378 5.935C28.1111 6.915 27.7378 8.01167 27.3178 9.225C26.9211 10.415 26.5594 11.6283 26.2328 12.865H30.5728C30.2461 11.605 29.9078 10.38 29.5578 9.19C29.2311 7.97667 28.9278 6.89167 28.6478 5.935H28.4378ZM44.9211 22.105C43.9178 22.105 43.1244 21.8133 42.5411 21.23C41.9578 20.6467 41.6661 19.8533 41.6661 18.85V0.754998C41.9228 0.708332 42.3311 0.649999 42.8911 0.579998C43.4511 0.486665 43.9878 0.439998 44.5011 0.439998C45.0378 0.439998 45.5044 0.486665 45.9011 0.579998C46.3211 0.649999 46.6711 0.789999 46.9511 0.999999C47.2311 1.21 47.4411 1.50167 47.5811 1.875C47.7211 2.24833 47.7911 2.73833 47.7911 3.345V17.17H55.8061C55.9694 17.4267 56.1211 17.7767 56.2611 18.22C56.4011 18.64 56.4711 19.0833 56.4711 19.55C56.4711 20.4833 56.2728 21.1483 55.8761 21.545C55.4794 21.9183 54.9544 22.105 54.3011 22.105H44.9211ZM59.6104 4.045C59.6104 3.04167 59.9021 2.24833 60.4854 1.665C61.0688 1.08167 61.8621 0.79 62.8654 0.79H74.4155C74.5788 1.04667 74.7188 1.385 74.8354 1.805C74.9755 2.225 75.0455 2.66833 75.0455 3.135C75.0455 4.02167 74.8471 4.65167 74.4505 5.025C74.0771 5.39833 73.5754 5.585 72.9454 5.585H65.5604V8.84H73.4354C73.5988 9.09667 73.7388 9.435 73.8555 9.855C73.9954 10.2517 74.0654 10.6833 74.0654 11.15C74.0654 12.0367 73.8788 12.6667 73.5054 13.04C73.1321 13.4133 72.6304 13.6 72.0005 13.6H65.5604V17.275H74.5554C74.7188 17.5317 74.8588 17.87 74.9754 18.29C75.1155 18.71 75.1855 19.1533 75.1855 19.62C75.1855 20.5067 74.9871 21.1483 74.5905 21.545C74.2171 21.9183 73.7155 22.105 73.0854 22.105H62.8654C61.8621 22.105 61.0688 21.8133 60.4854 21.23C59.9021 20.6467 59.6104 19.8533 59.6104 18.85V4.045Z" fill="#277EFF"/>
<path d="M84.8053 13.565C83.7786 13.215 82.8453 12.865 82.0053 12.515C81.1653 12.1417 80.4419 11.6983 79.8353 11.185C79.2286 10.6717 78.7503 10.065 78.4003 9.365C78.0736 8.64167 77.9103 7.76667 77.9103 6.74C77.9103 4.75667 78.6686 3.17 80.1853 1.98C81.7253 0.789999 83.8719 0.194999 86.6253 0.194999C87.6286 0.194999 88.5619 0.264999 89.4253 0.404998C90.2886 0.544999 91.0236 0.766666 91.6303 1.07C92.2603 1.35 92.7503 1.72333 93.1003 2.19C93.4503 2.63333 93.6253 3.15833 93.6253 3.765C93.6253 4.37167 93.4853 4.89667 93.2053 5.34C92.9253 5.76 92.5869 6.12167 92.1903 6.425C91.6769 6.09833 90.9886 5.81833 90.1253 5.585C89.2619 5.32833 88.3169 5.2 87.2903 5.2C86.2403 5.2 85.4703 5.35167 84.9803 5.655C84.4903 5.935 84.2453 6.29667 84.2453 6.74C84.2453 7.09 84.3969 7.38167 84.7003 7.615C85.0036 7.825 85.4586 8.02333 86.0653 8.21L87.9203 8.805C90.1136 9.505 91.7936 10.4033 92.9603 11.5C94.1503 12.5733 94.7453 14.0433 94.7453 15.91C94.7453 17.8933 93.9636 19.5033 92.4003 20.74C90.8369 21.9533 88.5386 22.56 85.5053 22.56C84.4319 22.56 83.4286 22.4667 82.4953 22.28C81.5853 22.1167 80.7803 21.8717 80.0803 21.545C79.4036 21.195 78.8669 20.775 78.4703 20.285C78.0969 19.7717 77.9103 19.1883 77.9103 18.535C77.9103 17.8583 78.1086 17.2867 78.5053 16.82C78.9019 16.33 79.3336 15.9567 79.8003 15.7C80.4536 16.2133 81.2469 16.6567 82.1803 17.03C83.1369 17.4033 84.1753 17.59 85.2953 17.59C86.4386 17.59 87.2436 17.415 87.7103 17.065C88.1769 16.715 88.4103 16.3067 88.4103 15.84C88.4103 15.3733 88.2236 15.0233 87.8503 14.79C87.4769 14.5333 86.9519 14.2883 86.2753 14.055L84.8053 13.565ZM107.692 5.97C107.948 5.85333 108.345 5.725 108.882 5.585C109.442 5.42167 110.002 5.34 110.562 5.34C111.542 5.34 112.358 5.49167 113.012 5.795C113.665 6.075 114.062 6.495 114.202 7.055C114.458 8.01167 114.692 8.91 114.902 9.75C115.135 10.5667 115.357 11.36 115.567 12.13C115.777 12.8767 115.975 13.6233 116.162 14.37C116.372 15.1167 116.57 15.8983 116.757 16.715H116.932C117.142 15.2917 117.328 13.9383 117.492 12.655C117.655 11.3483 117.807 10.0767 117.947 8.84C118.087 7.58 118.227 6.34333 118.367 5.13C118.507 3.89333 118.647 2.645 118.787 1.385C119.65 0.894999 120.572 0.649999 121.552 0.649999C122.415 0.649999 123.162 0.836666 123.792 1.21C124.422 1.58333 124.737 2.21333 124.737 3.1C124.737 3.61333 124.678 4.34833 124.562 5.305C124.468 6.23833 124.328 7.28833 124.142 8.455C123.978 9.62167 123.78 10.8467 123.547 12.13C123.313 13.4133 123.068 14.6383 122.812 15.805C122.555 16.9717 122.287 18.0333 122.007 18.99C121.75 19.9233 121.505 20.6467 121.272 21.16C120.922 21.4867 120.35 21.755 119.557 21.965C118.763 22.175 117.947 22.28 117.107 22.28C116.01 22.28 115.077 22.14 114.307 21.86C113.56 21.5567 113.105 21.1367 112.942 20.6C112.638 19.6667 112.312 18.5583 111.962 17.275C111.612 15.9917 111.238 14.58 110.842 13.04C110.515 14.5567 110.177 16.0383 109.827 17.485C109.477 18.9317 109.162 20.1567 108.882 21.16C108.532 21.4867 108.007 21.755 107.307 21.965C106.607 22.175 105.837 22.28 104.997 22.28C103.947 22.28 102.99 22.14 102.127 21.86C101.287 21.5567 100.738 21.1367 100.482 20.6C100.272 20.18 100.038 19.5617 99.7817 18.745C99.5484 17.905 99.3034 16.96 99.0467 15.91C98.79 14.8367 98.5217 13.6817 98.2417 12.445C97.985 11.2083 97.74 9.97167 97.5067 8.735C97.2967 7.49833 97.0984 6.29667 96.9117 5.13C96.725 3.94 96.585 2.855 96.4917 1.875C96.8184 1.57167 97.2734 1.29167 97.8567 1.035C98.44 0.778333 99.07 0.649999 99.7467 0.649999C100.633 0.649999 101.357 0.848332 101.917 1.245C102.5 1.61833 102.862 2.26 103.002 3.17C103.375 5.55 103.678 7.53333 103.912 9.12C104.168 10.7067 104.367 12.0133 104.507 13.04C104.67 14.0433 104.787 14.825 104.857 15.385C104.927 15.945 104.997 16.3883 105.067 16.715H105.242C105.452 15.7817 105.65 14.9183 105.837 14.125C106.023 13.3317 106.21 12.5383 106.397 11.745C106.607 10.9283 106.817 10.065 107.027 9.155C107.237 8.22167 107.458 7.16 107.692 5.97ZM132.109 1.42C132.506 1.18667 133.101 0.964998 133.894 0.754998C134.711 0.544998 135.527 0.439998 136.344 0.439998C137.511 0.439998 138.537 0.614999 139.424 0.965C140.334 1.29167 140.917 1.81667 141.174 2.54C141.594 3.75333 142.049 5.165 142.539 6.775C143.029 8.385 143.519 10.0533 144.009 11.78C144.499 13.4833 144.977 15.175 145.444 16.855C145.911 18.5117 146.319 19.9817 146.669 21.265C146.389 21.5917 145.969 21.8483 145.409 22.035C144.849 22.245 144.184 22.35 143.414 22.35C142.854 22.35 142.376 22.3033 141.979 22.21C141.606 22.1167 141.291 21.9767 141.034 21.79C140.801 21.6033 140.602 21.3583 140.439 21.055C140.299 20.7517 140.171 20.4017 140.054 20.005L139.424 17.59H133.089C132.902 18.29 132.716 19.0133 132.529 19.76C132.342 20.5067 132.156 21.23 131.969 21.93C131.642 22.0467 131.292 22.14 130.919 22.21C130.569 22.3033 130.137 22.35 129.624 22.35C128.434 22.35 127.547 22.1517 126.964 21.755C126.404 21.335 126.124 20.7633 126.124 20.04C126.124 19.7133 126.171 19.3867 126.264 19.06C126.357 18.7333 126.462 18.3483 126.579 17.905C126.742 17.275 126.964 16.4933 127.244 15.56C127.547 14.6267 127.874 13.6233 128.224 12.55C128.574 11.4533 128.947 10.3333 129.344 9.19C129.741 8.04667 130.114 6.97333 130.464 5.97C130.814 4.94333 131.129 4.03333 131.409 3.24C131.712 2.44667 131.946 1.84 132.109 1.42ZM136.309 5.935C135.982 6.915 135.609 8.01167 135.189 9.225C134.792 10.415 134.431 11.6283 134.104 12.865H138.444C138.117 11.605 137.779 10.38 137.429 9.19C137.102 7.97667 136.799 6.89167 136.519 5.935H136.309ZM157.482 10.625C158.462 10.625 159.209 10.4033 159.722 9.96C160.259 9.49333 160.527 8.79333 160.527 7.86C160.527 6.97333 160.247 6.29667 159.687 5.83C159.151 5.34 158.357 5.095 157.307 5.095C156.934 5.095 156.619 5.10667 156.362 5.13C156.129 5.13 155.884 5.15333 155.627 5.2V10.625H157.482ZM155.662 21.86C155.406 21.93 154.997 22 154.437 22.07C153.901 22.14 153.364 22.175 152.827 22.175C152.291 22.175 151.812 22.1283 151.392 22.035C150.996 21.965 150.657 21.825 150.377 21.615C150.097 21.405 149.887 21.1133 149.747 20.74C149.607 20.3667 149.537 19.8767 149.537 19.27V2.785C149.537 2.295 149.666 1.92167 149.922 1.665C150.202 1.385 150.576 1.16333 151.042 0.999999C151.836 0.719999 152.734 0.521665 153.737 0.404998C154.764 0.264999 155.791 0.194999 156.817 0.194999C160.037 0.194999 162.499 0.883333 164.202 2.26C165.906 3.63667 166.757 5.50333 166.757 7.86C166.757 9.00333 166.571 10.0417 166.197 10.975C165.847 11.885 165.311 12.6783 164.587 13.355C163.887 14.0083 162.989 14.5217 161.892 14.895C160.819 15.245 159.571 15.42 158.147 15.42H155.662V21.86Z" fill="#FC7900"/>
</svg>
